<mxfile host="app.diagrams.net" modified="2024-01-10T09:08:07.132Z" agent="Mozilla/5.0 (Windows NT 10.0; Win64; x64) AppleWebKit/537.36 (KHTML, like Gecko) Chrome/120.0.0.0 Safari/537.36" etag="aoOiyem4wWwO0TCv8saI" version="22.1.16" type="device">
  <diagram name="페이지-1" id="TiZozNrTah6lVcD5nQg1">
    <mxGraphModel dx="1434" dy="710" grid="1" gridSize="10" guides="1" tooltips="1" connect="1" arrows="1" fold="1" page="1" pageScale="1" pageWidth="827" pageHeight="1169" math="0" shadow="0">
      <root>
        <mxCell id="0" />
        <mxCell id="1" parent="0" />
        <mxCell id="jo6F3lM3xsj1Q-dvbQrg-7" style="edgeStyle=orthogonalEdgeStyle;rounded=0;orthogonalLoop=1;jettySize=auto;html=1;exitX=0.5;exitY=1;exitDx=0;exitDy=0;entryX=0.5;entryY=0;entryDx=0;entryDy=0;strokeWidth=2;" edge="1" parent="1" source="jo6F3lM3xsj1Q-dvbQrg-2" target="jo6F3lM3xsj1Q-dvbQrg-3">
          <mxGeometry relative="1" as="geometry" />
        </mxCell>
        <mxCell id="jo6F3lM3xsj1Q-dvbQrg-2" value="&lt;span style=&quot;color: rgb(0, 0, 0); font-family: Helvetica; font-size: 12px; font-style: normal; font-variant-ligatures: normal; font-variant-caps: normal; font-weight: 400; letter-spacing: normal; orphans: 2; text-align: center; text-indent: 0px; text-transform: none; widows: 2; word-spacing: 0px; -webkit-text-stroke-width: 0px; background-color: rgb(251, 251, 251); text-decoration-thickness: initial; text-decoration-style: initial; text-decoration-color: initial; float: none; display: inline !important;&quot;&gt;퀘스트 발생&lt;/span&gt;&lt;br style=&quot;border-color: var(--border-color); color: rgb(0, 0, 0); font-family: Helvetica; font-size: 12px; font-style: normal; font-variant-ligatures: normal; font-variant-caps: normal; font-weight: 400; letter-spacing: normal; orphans: 2; text-align: center; text-indent: 0px; text-transform: none; widows: 2; word-spacing: 0px; -webkit-text-stroke-width: 0px; background-color: rgb(251, 251, 251); text-decoration-thickness: initial; text-decoration-style: initial; text-decoration-color: initial;&quot;&gt;&lt;span style=&quot;color: rgb(0, 0, 0); font-family: Helvetica; font-size: 12px; font-style: normal; font-variant-ligatures: normal; font-variant-caps: normal; font-weight: 400; letter-spacing: normal; orphans: 2; text-align: center; text-indent: 0px; text-transform: none; widows: 2; word-spacing: 0px; -webkit-text-stroke-width: 0px; background-color: rgb(251, 251, 251); text-decoration-thickness: initial; text-decoration-style: initial; text-decoration-color: initial; float: none; display: inline !important;&quot;&gt;시작&lt;/span&gt;" style="rounded=1;whiteSpace=wrap;html=1;arcSize=50;" vertex="1" parent="1">
          <mxGeometry x="40" y="40" width="160" height="80" as="geometry" />
        </mxCell>
        <mxCell id="jo6F3lM3xsj1Q-dvbQrg-8" style="edgeStyle=orthogonalEdgeStyle;rounded=0;orthogonalLoop=1;jettySize=auto;html=1;exitX=0.5;exitY=1;exitDx=0;exitDy=0;strokeWidth=2;" edge="1" parent="1" source="jo6F3lM3xsj1Q-dvbQrg-3" target="jo6F3lM3xsj1Q-dvbQrg-4">
          <mxGeometry relative="1" as="geometry" />
        </mxCell>
        <mxCell id="jo6F3lM3xsj1Q-dvbQrg-10" style="edgeStyle=orthogonalEdgeStyle;rounded=0;orthogonalLoop=1;jettySize=auto;html=1;exitX=1;exitY=0.5;exitDx=0;exitDy=0;entryX=0;entryY=0.5;entryDx=0;entryDy=0;strokeColor=#990000;strokeWidth=2;" edge="1" parent="1" source="jo6F3lM3xsj1Q-dvbQrg-3" target="jo6F3lM3xsj1Q-dvbQrg-6">
          <mxGeometry relative="1" as="geometry" />
        </mxCell>
        <mxCell id="jo6F3lM3xsj1Q-dvbQrg-3" value="조건 1" style="rhombus;whiteSpace=wrap;html=1;" vertex="1" parent="1">
          <mxGeometry x="40" y="160" width="160" height="80" as="geometry" />
        </mxCell>
        <mxCell id="jo6F3lM3xsj1Q-dvbQrg-9" style="edgeStyle=orthogonalEdgeStyle;rounded=0;orthogonalLoop=1;jettySize=auto;html=1;exitX=0.5;exitY=1;exitDx=0;exitDy=0;strokeWidth=2;" edge="1" parent="1" source="jo6F3lM3xsj1Q-dvbQrg-4" target="jo6F3lM3xsj1Q-dvbQrg-5">
          <mxGeometry relative="1" as="geometry" />
        </mxCell>
        <mxCell id="jo6F3lM3xsj1Q-dvbQrg-11" style="edgeStyle=orthogonalEdgeStyle;rounded=0;orthogonalLoop=1;jettySize=auto;html=1;exitX=1;exitY=0.5;exitDx=0;exitDy=0;entryX=0;entryY=0.5;entryDx=0;entryDy=0;strokeColor=#990000;strokeWidth=2;" edge="1" parent="1" source="jo6F3lM3xsj1Q-dvbQrg-4" target="jo6F3lM3xsj1Q-dvbQrg-6">
          <mxGeometry relative="1" as="geometry" />
        </mxCell>
        <mxCell id="jo6F3lM3xsj1Q-dvbQrg-4" value="조건 2" style="rhombus;whiteSpace=wrap;html=1;" vertex="1" parent="1">
          <mxGeometry x="40" y="280" width="160" height="80" as="geometry" />
        </mxCell>
        <mxCell id="jo6F3lM3xsj1Q-dvbQrg-12" style="edgeStyle=orthogonalEdgeStyle;rounded=0;orthogonalLoop=1;jettySize=auto;html=1;exitX=1;exitY=0.5;exitDx=0;exitDy=0;entryX=0;entryY=0.5;entryDx=0;entryDy=0;strokeColor=#990000;strokeWidth=2;" edge="1" parent="1" source="jo6F3lM3xsj1Q-dvbQrg-5" target="jo6F3lM3xsj1Q-dvbQrg-6">
          <mxGeometry relative="1" as="geometry" />
        </mxCell>
        <mxCell id="jo6F3lM3xsj1Q-dvbQrg-16" style="edgeStyle=orthogonalEdgeStyle;rounded=0;orthogonalLoop=1;jettySize=auto;html=1;exitX=0.5;exitY=1;exitDx=0;exitDy=0;entryX=0.5;entryY=0;entryDx=0;entryDy=0;strokeWidth=2;" edge="1" parent="1" source="jo6F3lM3xsj1Q-dvbQrg-5" target="jo6F3lM3xsj1Q-dvbQrg-13">
          <mxGeometry relative="1" as="geometry" />
        </mxCell>
        <mxCell id="jo6F3lM3xsj1Q-dvbQrg-5" value="조건 3" style="rhombus;whiteSpace=wrap;html=1;" vertex="1" parent="1">
          <mxGeometry x="40" y="400" width="160" height="80" as="geometry" />
        </mxCell>
        <mxCell id="jo6F3lM3xsj1Q-dvbQrg-6" value="종료" style="ellipse;whiteSpace=wrap;html=1;" vertex="1" parent="1">
          <mxGeometry x="280" y="160" width="80" height="80" as="geometry" />
        </mxCell>
        <mxCell id="jo6F3lM3xsj1Q-dvbQrg-17" style="edgeStyle=orthogonalEdgeStyle;rounded=0;orthogonalLoop=1;jettySize=auto;html=1;exitX=0.5;exitY=1;exitDx=0;exitDy=0;strokeWidth=2;" edge="1" parent="1" source="jo6F3lM3xsj1Q-dvbQrg-13" target="jo6F3lM3xsj1Q-dvbQrg-15">
          <mxGeometry relative="1" as="geometry" />
        </mxCell>
        <mxCell id="jo6F3lM3xsj1Q-dvbQrg-13" value="퀘스트 발생" style="whiteSpace=wrap;html=1;" vertex="1" parent="1">
          <mxGeometry x="40" y="520" width="160" height="80" as="geometry" />
        </mxCell>
        <mxCell id="jo6F3lM3xsj1Q-dvbQrg-20" value="" style="edgeStyle=orthogonalEdgeStyle;rounded=0;orthogonalLoop=1;jettySize=auto;html=1;entryX=0.5;entryY=0;entryDx=0;entryDy=0;strokeWidth=2;" edge="1" parent="1" source="jo6F3lM3xsj1Q-dvbQrg-14" target="jo6F3lM3xsj1Q-dvbQrg-19">
          <mxGeometry relative="1" as="geometry" />
        </mxCell>
        <mxCell id="jo6F3lM3xsj1Q-dvbQrg-14" value="퀘스트 발생 알림" style="shape=document;whiteSpace=wrap;html=1;boundedLbl=1;" vertex="1" parent="1">
          <mxGeometry x="40" y="760" width="160" height="80" as="geometry" />
        </mxCell>
        <mxCell id="jo6F3lM3xsj1Q-dvbQrg-18" style="edgeStyle=orthogonalEdgeStyle;rounded=0;orthogonalLoop=1;jettySize=auto;html=1;exitX=0.5;exitY=1;exitDx=0;exitDy=0;strokeWidth=2;" edge="1" parent="1" source="jo6F3lM3xsj1Q-dvbQrg-15" target="jo6F3lM3xsj1Q-dvbQrg-14">
          <mxGeometry relative="1" as="geometry" />
        </mxCell>
        <mxCell id="jo6F3lM3xsj1Q-dvbQrg-21" style="edgeStyle=orthogonalEdgeStyle;rounded=0;orthogonalLoop=1;jettySize=auto;html=1;exitX=1;exitY=0.5;exitDx=0;exitDy=0;entryX=0;entryY=0.5;entryDx=0;entryDy=0;strokeWidth=2;strokeColor=#990000;" edge="1" parent="1" source="jo6F3lM3xsj1Q-dvbQrg-15" target="jo6F3lM3xsj1Q-dvbQrg-6">
          <mxGeometry relative="1" as="geometry" />
        </mxCell>
        <mxCell id="jo6F3lM3xsj1Q-dvbQrg-15" value="퀘스트 알림이 있는가" style="rhombus;whiteSpace=wrap;html=1;" vertex="1" parent="1">
          <mxGeometry x="40" y="640" width="160" height="80" as="geometry" />
        </mxCell>
        <mxCell id="jo6F3lM3xsj1Q-dvbQrg-19" value="종료" style="rounded=1;whiteSpace=wrap;html=1;arcSize=50;" vertex="1" parent="1">
          <mxGeometry x="40" y="880" width="160" height="80" as="geometry" />
        </mxCell>
      </root>
    </mxGraphModel>
  </diagram>
</mxfile>
